# xmcd CD database file
#
# Track frame offsets:
#	150
#	13772
#	27324
#	41455
#	58378
#	71716
#	81567
#	92818
#	105157
#	115332
#	128435
#	140557
#	150078
#	161070
#	174906
#	186921
#	201839
#	214723
#	231678
#	244925
#	254885
#	264920
#	279091
#	291879
#	304389
#
# Disc length: 4237 seconds
#
# Revision: 0
# Processed by: cddbd v1.4b41PL3 Copyright (c) Steve Scherf et al.
# Submitted via: Feurio! 1.61 - http://www.feurio.com
#
DISCID=70108b19
DTITLE=Various Artist - Country Memories
DYEAR=1900
DGENRE=
TTITLE0=Dickey Lee - 9,999,999 Tears
TTITLE1=Glen Campbell - Rhinestone Cowboy
TTITLE2=Lynn Anderson - Cry
TTITLE3=Conaway Twitty - Don't Cry Joni
TTITLE4=Lynn Anderson - Top Of The World
TTITLE5=Merle Hagard - Mama Tried
TTITLE6=Conaway Twitty - Hello Darlin'
TTITLE7=Freddy Fender - Wasted Days And Wasted Nights
TTITLE8=Porter Wagoner - Green Green Grass Of Home
TTITLE9=Hank Williams - Jambalaya
TTITLE10=Jim Reeves - Mexican Joe
TTITLE11=Jim Reeves - Billy Bayou
TTITLE12=Roger Miller - King Of The Road
TTITLE13=B.J. Thomas - Tie A Yellow Ribbon Round The Ole Oak Tree
TTITLE14=Tammy Wynetta - Stand By Your Man
TTITLE15=Kenny Rogers - Crazy
TTITLE16=Charlie Rich - The Most Beautiful Girl
TTITLE17=Emmylou Harris and Gram Parsons - Love Hurts
TTITLE18=Kenny Rogers - You Decorated My Life
TTITLE19=Carpenters - Sweet Sweet Smile
TTITLE20=Hank Locklin - Please Help Me I'm Falling
TTITLE21=Ray Price - Release Me
TTITLE22=Lee Hazelwood - These Boots Are Made For Walking
TTITLE23=John Denver - Take Me Home, Country Roads
TTITLE24=Lobo - Me And You And A Dog Named Boo
EXTD=
EXTT0=
EXTT1=
EXTT2=
EXTT3=
EXTT4=
EXTT5=
EXTT6=
EXTT7=
EXTT8=
EXTT9=
EXTT10=
EXTT11=
EXTT12=
EXTT13=
EXTT14=
EXTT15=
EXTT16=
EXTT17=
EXTT18=
EXTT19=
EXTT20=
EXTT21=
EXTT22=
EXTT23=
EXTT24=
PLAYORDER=
